<svg id="visual" viewBox="0 0 900 600" width="900" height="600" xmlns="http://www.w3.org/2000/svg" xmlns:xlink="http://www.w3.org/1999/xlink" version="1.1"><path d="M0 7L30 13C60 19 120 31 180 29.8C240 28.7 300 14.3 360 12.3C420 10.3 480 20.7 540 22.8C600 25 660 19 720 13.8C780 8.7 840 4.3 870 2.2L900 0L900 0L870 0C840 0 780 0 720 0C660 0 600 0 540 0C480 0 420 0 360 0C300 0 240 0 180 0C120 0 60 0 30 0L0 0Z" fill="#7b9ed9"></path><path d="M0 73L30 78C60 83 120 93 180 84C240 75 300 47 360 42C420 37 480 55 540 55C600 55 660 37 720 24.8C780 12.7 840 6.3 870 3.2L900 0L900 0L870 1.8C840 3.7 780 7.3 720 12.2C660 17 600 23 540 21.2C480 19.3 420 9.7 360 11.7C300 13.7 240 27.3 180 28.2C120 29 60 17 30 11L0 5Z" fill="#90b0e4"></path><path d="M0 121L30 128C60 135 120 149 180 133C240 117 300 71 360 60C420 49 480 73 540 83C600 93 660 89 720 79C780 69 840 53 870 45L900 37L900 0L870 2.8C840 5.7 780 11.3 720 23.2C660 35 600 53 540 53C480 53 420 35 360 40C300 45 240 73 180 82C120 91 60 81 30 76L0 71Z" fill="#a6c3ef"></path><path d="M0 145L30 155C60 165 120 185 180 172C240 159 300 113 360 103C420 93 480 119 540 122C600 125 660 105 720 118C780 131 840 177 870 200L900 223L900 35L870 43C840 51 780 67 720 77C660 87 600 91 540 81C480 71 420 47 360 58C300 69 240 115 180 131C120 147 60 133 30 126L0 119Z" fill="#b3cdf2"></path><path d="M0 169L30 181C60 193 120 217 180 202C240 187 300 133 360 122C420 111 480 143 540 149C600 155 660 135 720 146C780 157 840 199 870 220L900 241L900 221L870 198C840 175 780 129 720 116C660 103 600 123 540 120C480 117 420 91 360 101C300 111 240 157 180 170C120 183 60 163 30 153L0 143Z" fill="#c0d6f4"></path><path d="M0 193L30 210C60 227 120 261 180 252C240 243 300 191 360 177C420 163 480 187 540 195C600 203 660 195 720 205C780 215 840 243 870 257L900 271L900 239L870 218C840 197 780 155 720 144C660 133 600 153 540 147C480 141 420 109 360 120C300 131 240 185 180 200C120 215 60 191 30 179L0 167Z" fill="#c0d6f4"></path><path d="M0 289L30 299C60 309 120 329 180 312C240 295 300 241 360 218C420 195 480 203 540 211C600 219 660 227 720 238C780 249 840 263 870 270L900 277L900 269L870 255C840 241 780 213 720 203C660 193 600 201 540 193C480 185 420 161 360 175C300 189 240 241 180 250C120 259 60 225 30 208L0 191Z" fill="#c0d6f4"></path><path d="M0 319L30 348C60 377 120 435 180 459C240 483 300 473 360 444C420 415 480 367 540 362C600 357 660 395 720 401C780 407 840 381 870 368L900 355L900 275L870 268C840 261 780 247 720 236C660 225 600 217 540 209C480 201 420 193 360 216C300 239 240 293 180 310C120 327 60 307 30 297L0 287Z" fill="#b3cdf2"></path><path d="M0 553L30 548C60 543 120 533 180 518C240 503 300 483 360 496C420 509 480 555 540 576C600 597 660 593 720 576C780 559 840 529 870 514L900 499L900 353L870 366C840 379 780 405 720 399C660 393 600 355 540 360C480 365 420 413 360 442C300 471 240 481 180 457C120 433 60 375 30 346L0 317Z" fill="#a6c3ef"></path><path d="M0 589L30 587C60 585 120 581 180 576C240 571 300 565 360 569C420 573 480 587 540 592C600 597 660 593 720 583C780 573 840 557 870 549L900 541L900 497L870 512C840 527 780 557 720 574C660 591 600 595 540 574C480 553 420 507 360 494C300 481 240 501 180 516C120 531 60 541 30 546L0 551Z" fill="#90b0e4"></path><path d="M0 601L30 601C60 601 120 601 180 601C240 601 300 601 360 601C420 601 480 601 540 601C600 601 660 601 720 601C780 601 840 601 870 601L900 601L900 539L870 547C840 555 780 571 720 581C660 591 600 595 540 590C480 585 420 571 360 567C300 563 240 569 180 574C120 579 60 583 30 585L0 587Z" fill="#7b9ed9"></path></svg>